<svg id="Layer_1" data-name="Layer 1" xmlns="http://www.w3.org/2000/svg" viewBox="0 0 477 72"><defs><style>.cls-1{fill:#fff;}</style></defs><polygon class="cls-1" points="41.38 64.13 30.62 64.13 17.12 10.13 10.13 10.13 10.13 72 18 72 18 46.11 24.47 72 47.53 72 54 46.11 54 72 61.88 72 61.88 10.13 54.88 10.13 41.38 64.13"/><polygon class="cls-1" points="7.88 7.88 18.88 7.88 32.38 61.88 39.62 61.88 53.12 7.88 64.13 7.88 64.13 72 72 72 72 0 46.97 0 36 43.89 25.03 0 0 0 0 72 7.88 72 7.88 7.88"/><path class="cls-1" d="M130.5,0H81V72h7.88V7.88H130.5a14.62,14.62,0,1,1,0,29.24H91.12V72H99V45h31.5a22.5,22.5,0,0,0,0-45Z"/><path class="cls-1" d="M142.88,22.5A12.4,12.4,0,0,0,130.5,10.12H91.12V34.88H130.5A12.4,12.4,0,0,0,142.88,22.5ZM99,18h31.5a4.5,4.5,0,0,1,0,9H99Z"/><path class="cls-1" d="M212.81,10.12H172.12V61.88h40.69a11.09,11.09,0,0,0,11.07-11.07V21.19A11.09,11.09,0,0,0,212.81,10.12ZM216,50.81A3.19,3.19,0,0,1,212.81,54H180V18h32.81A3.19,3.19,0,0,1,216,21.19Z"/><path class="cls-1" d="M212.81,0H162V72h50.81A21.22,21.22,0,0,0,234,50.81V21.19A21.22,21.22,0,0,0,212.81,0Zm13.31,50.81a13.33,13.33,0,0,1-13.31,13.32H169.88V7.88h42.93a13.32,13.32,0,0,1,13.31,13.31Z"/><path class="cls-1" d="M293.81,0H264.19A21.22,21.22,0,0,0,243,21.19V50.81A21.22,21.22,0,0,0,264.19,72h29.62A21.22,21.22,0,0,0,315,50.81V21.19A21.22,21.22,0,0,0,293.81,0ZM297,50.81A3.19,3.19,0,0,1,293.81,54H264.19A3.19,3.19,0,0,1,261,50.81V21.19A3.19,3.19,0,0,1,264.19,18h29.62A3.19,3.19,0,0,1,297,21.19Z"/><path class="cls-1" d="M374.81,0H345.19A21.22,21.22,0,0,0,324,21.19V50.81A21.22,21.22,0,0,0,345.19,72h29.62A21.22,21.22,0,0,0,396,50.81V21.19A21.22,21.22,0,0,0,374.81,0ZM378,50.81A3.19,3.19,0,0,1,374.81,54H345.19A3.19,3.19,0,0,1,342,50.81V21.19A3.19,3.19,0,0,1,345.19,18h29.62A3.19,3.19,0,0,1,378,21.19Z"/><path class="cls-1" d="M426.19,45h29.62A21.21,21.21,0,0,0,477,23.83V21.19A21.22,21.22,0,0,0,455.81,0H426.19A21.22,21.22,0,0,0,405,21.19h18A3.19,3.19,0,0,1,426.19,18h29.62A3.19,3.19,0,0,1,459,21.19v2.64A3.19,3.19,0,0,1,455.81,27H426.19A21.22,21.22,0,0,0,405,48.21V72h72V54H423V48.21A3.19,3.19,0,0,1,426.19,45Z"/></svg>