<svg id="Layer_1" data-name="Layer 1" xmlns="http://www.w3.org/2000/svg" viewBox="0 0 1280 501"><path d="M1278.93,242.93a3.52,3.52,0,0,0-1.88.73c-2.3,2.06-2.87-1.76-4.43-31.24-2-36.75-2.45-42.11-3.27-42.11-1,0-1.56,9.1-2,33-.25,11.88-.66,24.28-1,27.51l-.49,5.87-1.8-4.77a69.75,69.75,0,0,0-2.71-6.6c-.49-1-1.8-13.87-2.86-28.61l-2-26.77-.17,19.51-.08,19.51-3,3.45c-3.69,4.25-3.61,4.4-5.66-8.95-.81-5.36-1.72-9.47-2-9.17s-1.4,10.41-2.46,22.44-2.21,21.57-2.54,21.28a35.47,35.47,0,0,1-2-4.62c-1.48-3.82-1.56-3.89-1.8-1.69a5.7,5.7,0,0,1-1.48,3.23c-2,1.54-2.79-.52-2.79-7.78a28.86,28.86,0,0,0-2.37-12.84l-2.38-6.23-.08,3.89c-.08,4.84-1.72,14.08-2.54,14.08-1.39,0-2.38-4.69-3.2-15.4-.49-6.24-.9-11.89-.9-12.62s-1-1.54-2.21-1.91-3-.95-3.69-1.24c-1.31-.45-1.48,0-1.48,4.32a22,22,0,0,1-1.14,7.41c-1.15,2.28-1.48,2.5-3.69,2.13-2.54-.44-2.54-.44-2.54,2.57a10.91,10.91,0,0,1-.9,4.54c-.82,1.47-.9,1.47-2,.15-1-1-1.15-5.72-1.23-23.4,0-21.27-.08-22.88-3.28-45.48-1.8-12.83-3.28-24.35-3.28-25.52s-.16-2-.41-1.84-.9,10-1.64,21.93-1.55,27.58-2,34.85-1,17.75-1.32,23.4-.82,9.68-1.14,9.17a56.53,56.53,0,0,1-2-6.9c-1.8-7.7-2.87-8.58-2.87-2.42,0,3.15-.41,5.06-1.15,5.65-.9.66-1.55-.22-3.44-4.7-2.38-5.57-3-6.38-3.93-4.4-.66,1.62-1.73,1.32-2.79-.73-.66-1.32-1-9.24-1-25.75V146l-3.36-9.61c-3.61-10.27-4.76-12.47-4.18-8.07.49,3.59-2.46,24.28-3.2,22.52-.25-.81-1.39-5.57-2.38-10.71a93,93,0,0,0-2.13-9.17c-.24.22-2.78,47.09-2.78,52.16l-.09,3-1.23-2.05c-1-1.61-1.23-5-1.31-15.77,0-13.06-.16-14.16-2.62-22.15-2.21-7.34-2.54-8.07-2.79-5.51-.24,2.94-1.64,6.24-2.62,6.24-1.23,0-3.28-5.5-3.28-9s-.57-4.7-5.24-11.67l-5.33-7.85-2.46-20.24c-1.39-11.08-2.54-20.69-2.54-21.42s-.16-1-.33-.88-1.55,17.31-3,38.07-2.7,38.22-2.87,38.66c-.49,1.39-2.78.29-4.09-2.06-1.07-1.68-1.23-7.55-1.23-35.28V81.92l-2.54-7a59.45,59.45,0,0,0-3.2-7.63c-.41-.29-1.23.15-1.89,1.1-1,1.47-1.31,7.12-1.72,31.47-.32,16.36-.9,46.36-1.39,66.75l-.82,37.05-5.49,12.69c-3.61,8.43-5.57,12.25-6,11.37-.25-.74-1.56-9.25-2.87-18.93l-2.38-17.6-.49,7.7c-.33,4.25-1.72,14.82-3.11,23.47s-2.55,15.92-2.55,16.14-.73-.66-1.55-1.83c-1.48-2.06-1.64-5.87-2.87-59l-1.39-56.85-2.55-9.54a105.41,105.41,0,0,0-3.11-10.49c-.33-.58-.82,7.56-1.15,18-1.47,51.94-2.29,67-5.08,94.48-1.56,15.7-3,28.9-3.11,29.34s-.82-.29-1.56-1.54c-1.31-2.27-2.13-17-5.9-108.85-1.07-25.38-6.39-87.44-7.62-88.76-.17-.22-.82.22-1.4,1-1.39,1.77-1.8,9.83-2.86,51.5-1.4,56.19-1.64,61.25-3.28,61.25-1.15,0-1.48.88-1.89,4.55-.24,2.56-2.21,22.08-4.26,43.49-.12,1.2-.23,2.39-.34,3.57-.33-3.69-.65-7.77-1-12l-2-26.77-.17,19.51-.08,19.51-3,3.45c-.66.76-1.2,1.38-1.65,1.82-.1-4-.21-8.4-.33-13.49-.5-23-1.15-52.08-1.48-64.69l-.49-22.89-3.11-5.72-3-5.72-.08,2.93c-.16,8-6.15,74.16-6.72,74.75-2.05,2-2.79-2.28-5.33-31-3-34.11-3.36-36.53-3.44-28.38-.16,6.08-2.54,34.54-3.11,36.16-.17.58-2.13-.08-5.82-2.13-3-1.69-5.82-3.15-6.15-3.3s-1.23.66-2,1.91a7.6,7.6,0,0,1-2,2.2c-.25,0-1-1.4-1.81-3.16-1.14-2.64-1.47-8.73-2.21-40.49-1.15-46.21-2-71.52-2.29-70.05-.17.59-2.3,14.74-4.76,31.47s-4.59,30.51-4.75,30.66-.82-.73-1.39-2c-1.23-2.57-2.46-2.86-2.55-.59-.08,3.23-5.49,23.7-5.9,22.6-1.8-4-6.63-23.92-8.77-35.95-4.09-23-3.52-26.11-5.9,31.69-.2,5.56-.41,10.69-.61,14.79-2.91-8.13-3.83-9.64-3.31-5.62a5.21,5.21,0,0,1,0,.64c-.18-1.11-.37-2.26-.55-3.43-3.12-19.88-3.12-19.73-4.67-19.73-.82,0-1.31,5.34-2,26.84a8.32,8.32,0,0,0-.48-1.68c-.25.22-2.79,47.09-2.79,52.16l-.08,3L921.53,184c-1-1.61-1.23-5-1.31-15.77,0-13.06-.16-14.16-2.62-22.15-2.22-7.34-2.54-8.07-2.79-5.51-.25,2.94-1.64,6.24-2.62,6.24-1.23,0-3.28-5.5-3.28-9s-.57-4.7-5.25-11.67L902,123.73c-2.2-15-4.2-27.76-4.43-29.26l-.5-2.79-1.55,2-.17.24c-1.16-9.26-2-16.69-2-17.33s-.17-1-.33-.88-.4,3.61-.86,9.37c-.42-2.53-.88-5.36-1.37-8.34l-3.11-18.34-.49,6.23c-.33,3.45-.9,21.06-1.4,39.25-.58,23-1,38.23-1.28,48.28a7,7,0,0,1-1.41-1.78c-1.06-1.68-1.23-7.55-1.23-35.28V81.92l-2.54-7a60.09,60.09,0,0,0-3.19-7.63c-.41-.29-1.23.15-1.89,1.1a3.08,3.08,0,0,0-.34.8c-.58-8.19-1.32-15.11-2.54-25.44-1.64-14.16-3.2-26.19-3.44-26.78-.49-1.1-.82,8.07-2.63,81.57l-1.06,43.13h-6.8l-1.07,26.19c-.39,11.36-.92,25.2-1.26,34.56l-1.51-11.23-.49,7.7c-.32,4.16-1.66,14.33-3,22.86l-1.34-.85-4.51-2.87-.38-6.19c-.23-8.21-.49-19.26-.83-34.22l-1.4-56.85-2.54-9.54c-.19-.74-.39-1.46-.58-2.17-1-17-1.44-16.53-2.79-16.53s-1.56,1.1-1.56,42v6.46c-.55,17.26-1.07,29.47-1.73,40.23l-1.14,3c-1.55,4.18-3,8.07-3.28,8.66s-2.13-1-5.16-4.62l-1.39-1.68c-.62-14.19-1.36-32-2.28-54.51-1.07-25.38-6.4-87.44-7.63-88.76-.16-.22-.82.22-1.39,1-1.15,1.46-1.63,7.22-2.36,32.58-.75-18.86-1.67-28.08-3.64-45.85-1.72-15.77-3.36-28.76-3.68-28.76s-1.07,1.25-1.81,2.72c-1.14,2.42-1.39,10-2.21,54.5C795,144.27,794,191.8,793.66,192.17c-.24.15-1-.73-1.64-2-.9-1.47-1.31-4.18-1.31-8.51v-6.31l-2-2.33c-.34-15.07-.67-29.18-.87-37l-.49-22.89-3.12-5.72-3-5.72-.08,2.93c-.06,2.85-.86,13.07-1.88,25.09-.64-15.53-1.56-38.23-2.48-60.3-1.31-33.52-2.54-62.72-2.62-64.92l-.25-4-1.72,2.93c-2,3.3-1.56-7.33-3.61,99.4-.23,11.76-.5,22.92-.74,31.64-1.88-20.62-2.12-21.25-2.19-14.4-.11,4.06-1.21,18.07-2.09,27.43l-3-8.29-1.47,2.71a8.39,8.39,0,0,1-2,2.72c-2.79,0-5.65-23-13.11-106-1.4-15.33-2.79-29.56-3.12-31.54-.26-1.63-.77,14.64-1.3,38.74-.86,5.59-2.36,15.63-4,26.84-2.46,16.72-4.59,30.51-4.75,30.66s-.82-.73-1.4-2c-1.23-2.57-2.46-2.86-2.54-.59-.08,3.23-5.49,23.7-5.9,22.6-1.8-4-6.64-23.92-8.77-35.95-3.89-21.89-3.57-25.75-5.57,23.53-1.33-10.72-2.5-19.19-2.72-19.64s-.41,15.4-.33,35.21l.07,9.69c-.52-3-1.14-6.72-1.78-10.72-3.11-19.88-3.11-19.73-4.67-19.73-.82,0-1.31,5.36-2.05,26.92-1,26.08-1.57,42.82-2.08,54.48a8.39,8.39,0,0,1-1.45-2.1c-1.56-2.72-1.72-4.26-1.72-18.12V151.75l-3.69-10.34A196.18,196.18,0,0,1,679.74,116L677,101l-.09,40.49-.07,36.75c-.76-20.16-1.21-24.48-5.24-51.2-2.38-16.35-4.67-30.95-4.92-32.56l-.49-2.79-1.56,2c-.82,1.18-1.55,2-1.64,1.76s-1.47-8.65-3.11-18.7l-3.11-18.34-.5,6.23c-.32,3.45-.9,21.06-1.39,39.25-.79,31.42-1.22,48.28-1.61,57.34-.86-6.7-1.89-14.87-3.16-25.07-2.77-22.61-5.27-41.95-6.14-48.11-.78-19.52-1.51-27.26-3.51-44.31C638.78,29.62,637.22,17.59,637,17c-.49-1.1-.82,8.07-2.62,81.57l-1.06,43.13h-6.81l-1.06,26.19-.06,1.59c-.49-1-1-2-1.51-3L620.24,160V72.31l-4.59-18.26c-2.46-10-4.67-18.41-4.92-18.63s-.32,1.61-.32,4c0,5.75-1.43,53-2.32,79.14-1.44-26.72-1.75-26-3.33-26s-1.55,1.1-1.55,42v5.33l-.92,1.64c-1.55,2.71-1.72,4.25-1.72,14.59,0,11.3-.08,11.67-3,19.81-1.72,4.55-3.28,8.29-3.52,8.29s-1.15-1.17-1.89-2.57c-1.15-2.2-1.39-5.21-1.39-19.66,0-9.39-.41-29.92-.82-45.62s-1-40.57-1.31-55.24-.66-26.48-.82-26.4-.82,12.76-1.48,28.09c-2.7,57.14-4.51,99.17-4.67,104.67-.08,3.16-.41,5.73-.66,5.73s-.86-.87-1.7-2.17c-.19-6.36-.39-15.07-.66-27.18-1.72-76.8-2-81.64-5.41-112.81-1.72-15.77-3.36-28.76-3.69-28.76a8,8,0,0,0-1.8,2.72c-1.15,2.42-1.39,10-2.21,54.5-.45,25.92-.86,48.36-1.21,67-.34,8.24-.73,17.86-1.1,26.85L562,186.08l-1.16,3.59c-.71-1.55-1-4.12-1-8v-6.31l-5-5.87-4.92-5.86L549,147c-.41-9.17-1.8-44.09-3.19-77.54S543.3,6.73,543.21,4.53L543,.5l-1.72,2.93c-2,3.3-1.56-7.33-3.61,99.4-.49,24.79-1.15,46.94-1.39,49.14l-.3,2.42-.94-1.32a7.08,7.08,0,0,1-.86-1.41l-.28-.77c-.91-2.9-1.54-9.86-3.78-35.59-1.4-15.55-2.62-28.61-2.87-29s-.33,1.4-.33,4c0,4.28-1,26.54-2.16,52.14-2.44-7.31-5.47-34.85-11.68-103.86-1.39-15.33-2.78-29.56-3.11-31.54s-1.07,24.35-1.72,59.05c-.27,16.06-.59,33.62-.89,49.44-2.58-9.63-4.74-17.06-5-17.31s-1.72,21.79-3.19,49.15-2.95,51.64-3.2,54c-.41,3.82-.65,4.18-1.56,3a12,12,0,0,1-1.39-2.13c-.14-.37-1.6.25-3.47,1.32-.18-1.75-.25-4.13-.29-7.77,0-9.1-6.14-72.62-6.39-66.24-.08,2.6-2.25,8.6-3.23,9.12-.1-1.77-.2-3.59-.31-5.45-4-71.67-4.91-86.41-5.24-86.7-.16-.15-.9,1-1.64,2.71-1.15,2.64-1.31,10.71-1.31,81.13V169l-1.71,6c-3.11,11-3.77,12.47-5.33,12.69-1.31.22-2.13-.44-3.36-2.71l-.34-.64c-.51-5.32-1-9.36-1.23-9.63,0,0-.06,0-.1,0,0-2.07-.05-4.62-.05-7.85V151.75l-3.69-10.34A198,198,0,0,1,448.8,116L446,101l-.08,40.49-.06,32.08c-3.8-5.74-3.89-6-4.3-13.3l-.41-7.55-4.09,2.93c-2.22,1.62-4.18,2.64-4.35,2.35s-2-20.61-4.18-45.19-4.26-44.82-4.5-45-.5,3.23-.58,7.63c0,8.73-1.72,30.81-2.46,31.4-.24.22-1.47-8.14-2.78-18.49l-2.46-18.85-.39,36.71c-1.55-12.09-2.62-20-2.71-20.13-.25-.15-.41,4.25-.41,9.9,0,20.1-3,56.93-6.15,77.59a9.16,9.16,0,0,1-1.9,3.32c-.16.22-.9-.29-1.56-1.1-1-1.17-1.14-5.35-1.23-23.77l-.08-22.37-2.7-7.33L396,114.93l-.58,18c-.33,9.9-.9,25.24-1.39,34.11,0,.46-.05,1-.07,1.52-.35-.7-.7-1.38-1.07-2L389.3,160V72.31l-4.59-18.26c-2.46-10-4.67-18.41-4.92-18.63s-.33,1.61-.33,4c0,7.56-2.46,86.85-2.95,95.65l-.49,8.36L374.55,141l-1.48-2.49-1.72,3.08c-1.56,2.71-1.72,4.25-1.72,14.59,0,11.3-.08,11.67-3,19.81-.19.48-.36.95-.54,1.41-.56-3.9-1.2-8.42-1.85-13.22-2-14.45-3.86-26.48-4.1-26.7s-.33,5.21-.42,13.29c-.15-10.21-.43-23.44-.72-34.34-.41-15.77-1-40.57-1.31-55.24s-.65-26.48-.82-26.4-.82,12.76-1.47,28.09C352.66,120,350.86,162,350.7,167.52c-.09,3.16-.41,5.73-.66,5.73s-1.8-2.2-3.36-4.92c-2.7-4.91-2.79-5.43-7.38-39.1l-4.59-34.1L334.14,108c-.33,7-1.15,27.51-1.88,45.48L331,186.08l-4.31,13.38-.05-9.34L324,187l-2.7-3.15-.33-11.66a150.35,150.35,0,0,0-2.37-22l-2-10.27-.49,8.44c-.17,3-.72,14-1.38,27.75V154l-2.63-4.48-2.7-4.47-.49,2.57a17.83,17.83,0,0,1-1.89,5l-1.47,2.5-1.48-2.06c-1.8-2.49-1.88-3-4.91-37.77-1.4-15.55-2.63-28.61-2.87-29s-.33,1.4-.33,4c-.05,6.56-2.26,55.37-4.13,93.72l-1.46-18.54c-1.15-14.89-2.21-27.14-2.37-27.28s-.5,10.27-.74,23c-.63,25.44-1,41.35-1.29,51.24-.31-8.11-.75-20.31-1.16-33.05l-1.31-37.41-5.82-21.64c-3.11-11.88-6-21.86-6.31-22.15s-1.72,21.79-3.19,49.15-3,51.64-3.2,54c-.36,3.33-.59,4-1.24,3.38V198.7c0-4-1-14.52-2.13-23.47-2-15.55-2.79-19.81-2.79-14.38,0,2.68-.84,23.25-1.74,43.65-2.22,1.43-4.08,2.48-4.23,2.34-.33-.29-.9-9.46-4.51-73.57-4-71.67-4.92-86.41-5.24-86.7s-.91,1-1.64,2.71c-1.15,2.64-1.31,10.71-1.31,81.13V208.6l-2.46,6.31c-.9,2.26-1.75,4.45-2.32,5.89a28.64,28.64,0,0,1-.32-4.57c0-4.69-.24-5.5-2-7l-1.87-1.54c-.43-9.71-2.36-32.2-3-32.86-.16-.15-2,1-4.26,2.42a36.71,36.71,0,0,1-4.43,2.64c-.24,0-2.21-2.72-4.42-6.09-3.94-5.94-4-6.09-4.43-13.5l-.41-7.55-4.1,2.93c-2.21,1.62-4.18,2.64-4.34,2.35s-2-20.61-4.18-45.19-4.26-44.82-4.51-45-.49,3.23-.57,7.63c0,8.73-1.72,30.81-2.46,31.4-.25.22-1.48-8.14-2.79-18.49l-2.46-18.85L184.4,108l-.49,38.51-2.54,8c-1.47,4.55-3.11,8.29-3.85,8.65-1,.52-1.31,1.76-1.31,4.7,0,3.3-1.31,7.41-3,9-.17.22-.9-.29-1.56-1.1-1-1.17-1.15-5.35-1.23-23.77l-.08-22.37-2.7-7.33-2.63-7.34-.57,18c-.33,9.9-.9,25.24-1.39,34.11-.74,15.26-4.1,84.43-4.1,85.6,0,.37-1.31.59-2.87.59-1.72,0-2.87-.37-2.87-.95,0-2.13-9.92-72.26-10.49-74.24s-.9-1.32-3,5.36c-1.31,4.18-2.46,7.41-2.62,7.26s-2-12-3.94-26.48-3.85-26.48-4.09-26.7-.5,12-.5,27.29c0,25.74-.16,28.53-2,40.27-1.14,7-2.29,13.42-2.54,14.45-.41,1.76-.49,1.76-1.64.44-.9-1.18-1.14-5.28-1.14-20.76V179.77l-2.71.44-2.78.52-2.38-15c-2.3-14.74-2.38-14.81-3-10.12-.33,2.64-1.31,18.12-2.3,34.48s-1.88,32.64-2.21,36.31l-.57,6.6-2.22-11.74c-1.31-7.11-2.29-10.49-2.29-8.58A32.78,32.78,0,0,1,99.5,220c-1.15,3.38-1.48,3.89-2.46,3.08-.82-.8-1.07-4.69-1.23-16.94l-.08-16L93,187l-2.7-3.15L90,172.15a151.69,151.69,0,0,0-2.38-22l-2-10.27-.5,8.44c-.24,4.62-1.39,27.43-2.45,50.61-1.07,23.91-2.22,41.22-2.55,40s-1.47-8-2.54-15L75.73,211l-2.3,3.6c-2.21,3.3-2.45,3.44-3.52,2.2-.66-.81-1.07-3.52-1.07-7.41,0-5.87-.08-6.16-3.68-11.37l-3.61-5.36-2.13-27.14c-1.15-14.89-2.21-27.14-2.38-27.28s-.49,10.27-.74,23c-1.72,70-1.55,67.85-2.78,66.75-.82-.73-1.48-7.77-2.71-28.83-3.36-56.85-2.78-50.76-5.16-53l-2.21-2V166.5c0,20.76-.17,23-2.13,33-1.23,5.94-2.3,10.93-2.46,11.07s-1.64-.8-3.2-2.12L32.78,206V198.7c0-4-1-14.52-2.13-23.47-2-15.55-2.78-19.81-2.78-14.38s-3.36,82-3.77,86.34c-.41,3.66-.74,4.54-1.73,4.4a3.13,3.13,0,0,1-1.88-1.32c-1.07-1.91-3.12-10.35-5-20.69-1.56-9-2.05-10.2-3.77-11.3-1.15-.58-2.13-1-2.21-.88s-1.07,1.32-2,2.65-2.21,2.2-2.62,2-.74-2.87-.74-5.8c0-4.69-.25-5.5-2-7L0,207.5v56.26c0,44.31.25,56.27,1,56s1.48-2.93,2.05-6.16c3-16.72,2.71-15.77,4.84-16.5a4.4,4.4,0,0,1,4,.51c2,1.18,2,1.1,2-.51.08-.95.9-9.61,2-19.22l1.88-17.46,2.79-2.71a39,39,0,0,0,2.95-3c.17-.15.74.15,1.48.66,1.06.73,1.23,3.6,1.23,18.27,0,9.53.57,24.42,1.23,33.08s1.39,20.9,1.72,27.14c.32,6.53.82,10.71,1.23,9.9s1.39-9.68,2.37-19.8,1.81-18.42,2-18.49,1.15,1.54,2.13,3.82q1.84,4.06,2.95,3.74c1.48-.52,1.56.44,3.69,25.38,1.06,11.66,2,21.05,2,20.9s1.23-12.1,2.38-26.55c2.29-29.56,6.06-64.19,7-65.21,1.56-1.54,2.3,7.11,2.71,34,.24,15.92.74,36.24,1.06,45.12l.58,16.13,1-7.33c.57-4,1.07-8.14,1.07-9.1.08-1.17.41-1.54,1.31-1.24s1.23-.37,1.23-4a20.49,20.49,0,0,1,1.23-7c.65-1.39,2.21-8.8,3.36-16.43S71,303.81,71.3,303.81s1.15,1.84,2,4.11,1.72,4.18,2.05,4.33,1-4.4,1.48-10.12c3.68-39.54,3.68-39.61,4.75-38.29.57.66,1.23,3.88,1.47,7.19.41,5.57,2.14,82.88,2.14,95.06,0,3,.16,5.28.49,5.06,1.06-1,7.7-38.73,9.83-55.82C96.79,305,98.1,296.7,98.35,297a28.36,28.36,0,0,1,2.05,5.36c2.21,7.48,2.78,7.63,2.87.58,0-6.3,1.23-22,2.13-28.46.49-3.22.49-3.22,1.55-1.46.74,1.32,1.32,12.39,2,41,.58,21.57,1.23,43.79,1.56,49.51l.49,10.35,1.89-10.27c1.06-5.65,2.21-11.45,2.54-12.84l.65-2.57,1.07,2c.9,1.69,3.11,3.23,3.69,2.64.16-.14.65-8.51,1.14-18.55,1.64-33.09,1.81-34.63,3.12-32.43,1.39,2.5,1.47,3.74,4,58.47,2,43.35,2.45,52.08,2.7,43.2,0-2.27.66-14.45,1.39-27l1.23-22.89,5.33-4.55,5.41-4.55,1.47-24.2c.91-13.35,2.71-32.57,4-42.77s2.54-18.85,2.54-19.21,1.31-.74,2.87-.74c4.1,0,5.33,2.13,5.82,10,.65,10.27,4.42,115.39,4.42,122.72,0,3.59.33,6.6.66,6.6s1.72-6.53,2.95-14.52,2.62-14.89,3-15.48,1.56,2.42,2.95,7.34l2.38,8.36.41-4c.41-3.74,1.88-7.4,2.7-6.6.17.22,1.4,14,2.71,30.59s2.62,30.3,2.95,30.3.65-2.13.65-4.63a135.6,135.6,0,0,1,2.13-19.58l.5-2.57,1.14,1.84a12.82,12.82,0,0,1,1.15,4.69c.08,8.36,1.39-2.05,5-40,2.21-23,4.1-42,4.26-42.18s1.8,7.12,3.77,16.07c4.35,20.46,4.84,21.78,4.92,13.79.08-5.65.33-6.46,3-10.49,3.44-5,4.18-5.06,10.25-.51a25.49,25.49,0,0,0,4.34,2.86c.25,0,.49-1.84.49-4s1.37-17.44,2.75-31.63c.14,2.32.31,3.23.52,3.16.57-.22,1.47-2.93,2-6.16,2-11.08,2.54-14.4,3.29-15.59.29,4.44.48,12,.73,25.57.25,16.36.91,51.35,1.32,77.75l.9,48.05,2.54,5.5c3.36,7.26,3.93,7.7,3.93,2.86,0-2.13.58-23.91,1.23-48.34,1.15-40.71,1.48-46.5,4.18-69.68,1.56-13.94,3.12-26.12,3.36-27.14l.41-1.84,1.31,2.35a7.21,7.21,0,0,0,1.78,2.16c.46,6.95.93,14.24,1.16,18.6.33,6.53.82,10.71,1.23,9.9s1.39-9.68,2.38-19.8,1.8-18.42,2-18.49.93,1.18,1.79,3.05c.41,6.71.47,22.46.52,63.12l.08,66,2.71,9.91,2.78,9.9.09-19.73.08-19.74,4.83-4.91,4.84-4.84L286,352.89c1.2-25.66,2-42.92,2.56-54.44,0,1,0,2.08.05,3.16.25,15.92.74,36.24,1.07,45.12l.57,16.13,1-7.33c.58-4,1.07-8.14,1.07-9.1.08-1.17.41-1.54,1.31-1.24a1.45,1.45,0,0,0,.44.05c.41,10.53.88,21.84,1.38,33,1.55,35.06,3,65.43,3,67.48s1-6.09,2-18l2-21.64,4.67-9.9,4.67-9.9,3.12-39.61c.31-3.88.6-7.66.88-11.25.29,14.25.5,26.37.5,30.61,0,3,.16,5.28.49,5.06,1.07-1,7.7-38.73,9.84-55.82.47-4,1-7.68,1.39-10.69a13,13,0,0,1,1.82,3.06c1,2.2,1.39,5.14,1.39,10.42,0,10.05,5.65,126.68,6.15,127.12.24.22.41-1.84.41-4.62,0-4,5.08-64.33,6-71.52.16-1.4,1.39.29,4.92,6.89l4.67,8.66.08,7.85c0,8.95,5.9,88.53,6.56,89.12.24.22.9-22.74,1.55-51.13.23-10.68.44-20.51.65-29.36.42,6.83.61,6.88.73,2.37,0-2.27.66-14.45,1.4-27l.65-12.12c.5,5.7,1.14,12.89,1.82,20.48l2.78,30.07.09-13.93.08-13.94,3-8c3.12-7.92,3.12-8,3.69-5.13.33,1.54,1.72,23.18,3.11,48,2.54,45.85,3,51.35,3.2,45.48,0-1.83.82-8.43,1.72-14.67s3.12-28.68,4.92-49.88c3.5-41,5.25-61,6.15-70,1,27.51,1.87,53.94,1.87,57.49s.32,6.6.65,6.6,1.72-6.53,2.95-14.52c1.11-6.69,2.22-12.69,2.73-14.75.82,3.85,1.56,7.07,2.12,9.1,2.05,7.12,4.51,19.37,6.39,31.1l3,19.29,1.65-3.3c.54,5.56,1,9,1.12,9,.41,0,.66-2.13.66-4.63a135.6,135.6,0,0,1,2.13-19.58l.49-2.57L422.4,408a13,13,0,0,1,1.14,4.69c.09,8.36,1.4-2.05,5-40,2.22-23,4.1-42,4.26-42.18s1.81,7.12,3.77,16.07c4.35,20.46,4.84,21.78,4.92,13.79.08-5.65.33-6.46,3-10.49a24.84,24.84,0,0,1,1.9-2.5c.08,2.92.16,6.13.25,9.69,1.72,67,2.21,83,2.29,73.57l.17-9.24L454,409.88,459,398.37V352.18l.15.05c.25,0,.49-1.84.49-4,0-1.95,1.09-14.29,2.31-27l.41-.74c3.12-5.58,3.44-5.94,4.51-4.62a12.94,12.94,0,0,1,2,4c0,.09.05.29.09.58,0,1,0,2,.06,3.09.24,16.36.9,51.35,1.31,77.75l.9,48.05,2.54,5.5c3.36,7.26,3.94,7.7,3.94,2.86,0-1.26.2-9.43.5-20.95.37-.73.8-1.53,1.31-2.45,2.3-4.18,3.77-5.87,4.84-5.87,1.8,0,1.64,2.35,5-60.51,1.39-25.46,2.78-49,3.11-52.45l.57-6.23,3,8.06,2.79,7.43c.09,9.93.12,24.69.14,46.86l.09,66,2.7,9.91,2.79,9.9.08-19.73.08-19.74,1-1v65.42l3.19,8.65c1.73,4.77,3.36,8.88,3.69,9.1s.49-3.74.49-8.95a97.33,97.33,0,0,1,1.64-17.9c.82-4.69,3.61-26,6.15-47.38s4.75-40.05,5-41.45c.22-1.09.4-1.61.79-1.15,1.46,32.87,2.72,60.45,2.72,62.4s1-6.09,2-18l2-21.64,4.25-9c1,20.55,2.93,57.43,4.87,93L543,501.5l1.88-3.08,1.81-3.08V385.9L549.2,377c4.18-15,3.93-14.45,5.65-14.45s1.64.14,4.92-11.74c1-3.45,2.13-7.56,2.62-9.17l.46-1.63c.87,20.25,2.3,50.2,3.47,73q0,4.53,0,9.48v78.7h6.55V459.62l3.61-10.27,3.61-10.2,1.31-37.41c.26-7.47.52-14.64.74-20.85l2,3.76.08,7.85c0,8.95,5.9,88.53,6.56,89.12.24.22.9-22.74,1.56-51.13,1.06-51.12,2-83.18,2.37-78.26.08,1.39,1.4,16.06,2.87,32.64l2.79,30.07.08-13.93.08-13.94,2.15-5.67c.16,2.72.32,5.58.49,8.6,1.8,32.13,3.28,59,3.28,59.64s.73.22,1.55-1.32c1-1.68,1.44-3.77,2.17-30,.06,1.18.13,2.37.2,3.56,2.54,45.85,3,51.35,3.19,45.48,0-1.83.82-8.43,1.72-14.67s3.12-28.68,4.92-49.88c3.1-36.17,4.82-56,5.8-66.33l0,.68c1.48,29.05,3,55.09,3.36,57.95l.58,5.13.16-5.87c.17-7.84,3.36-19.87,3.36-12.76,0,1.4,1.31,25.09,2.87,52.74s2.87,51.86,2.87,53.84c0,9.91,1.23-.73,4.1-36.67.64-8.22,1.45-17.61,2.32-27.21l.45,2.85,2.13-4.25c1.89-4,2.38-7,5.16-35.5.59-5.81,1.15-11,1.68-15.79,2.26,20,5.69,54.79,7.43,76.67,3.2,39.76,3.61,44,4.43,44,2.21-.07,2.54-2.27,3.77-24.21,1.84-31.57,4.54-79.91,6.68-118.43.06,2.29.12,4.73.19,7.38,1.72,67,2.21,83,2.3,73.57l.16-9.24L685,409.88l4.92-11.51V326.55l3-5.43c.51,17.4,1,42.85,1.81,82.67.25,15.63.74,28.17,1.07,27.88s2.29-13.5,4.43-29.2c1-7.81,2.07-15.18,2.87-20.81,1.36,30.35,2.78,57.8,3.1,61.52.65,6.75.65,6.83.81,2a16,16,0,0,1,2-8.29c.84,14.55,1.51,28.16,1.51,30.81s.17,4.92.41,4.77,1.07-8.73,2-19c.57-6.29,1.68-15.62,2.92-25,.57-.39.94-2.31,1.54-11.3,1.34-9.44,2.64-17.64,3.41-21.18l.49-2.06L723,396c1.31,1.83,1.55,3.59,1.55,13.42v11.3l4.84,7.77,4.84,7.78,2.44,16.53v29.68l3.2,8.65c1.72,4.77,3.36,8.88,3.69,9.1s.49-3.74.49-8.95a96.46,96.46,0,0,1,1.64-17.9c.82-4.69,3.6-26,6.14-47.38s4.76-40.05,5-41.45c.49-2.42.74-2.05,3.61,5.5l3.11,8.07.09-8.21c.08-5.95.39-8.74,1.4-10.72.16,2.58.33,5.23.49,7.93,1.56,25.16,2.95,45.7,3,45.55s.4-7.16.82-18.07c1.06,20.8,2.53,48.58,4,75.58l.57,11.37,1.89-3.08,1.8-3.08V385.9l.16-.57c0,22.44.38,25.9,3,50.52,3.61,32.71,3.61,32.64,5.08-5.5.57-12.55,1.48-34.62,2.13-49.15.28-6.22.68-15.08,1.12-24.8.43-1.49.94-3.34,1.57-5.64,1-3.45,2.13-7.56,2.63-9.17l.82-2.93,1.55,2.56c1.4,2.42,1.48,6,1.56,81.21v78.7h6.56V459.62l3.6-10.27,1.66-4.69c.14,9.89.37,15.4.65,15.4a10.64,10.64,0,0,0,2.87-.88c2-.81,2-1,2-8.22,0-4.11,1.8-34.84,4.1-68.29.45-6.81.91-13.86,1.38-20.91h.9V352a108.23,108.23,0,0,1,2.87-24.58c.73-2.64,3.44-2.05,5.32,1.32,1.34,2.39,1.8,6.59,4.13,47.25.2,5.75.39,11,.56,15.47.65,19.73,1.23,38.73,1.23,42.11s.16,6,.41,5.79a46.92,46.92,0,0,0,1-5.37c.51,9.43.83,15.33.83,15.64.08.73.74.22,1.56-1.32,1.27-2.17,1.65-5,2.88-59.59.59-10.54,1.21-25.71,2.21-50.81.79-19.42,1.58-37.72,2.16-50.57l1.19,2,1.8-2.86c.23-.36.45-.66.66-.94,0,.69,0,1.39,0,2.12.08,19.14.33,22.44,2.79,39.83,1.47,10.34,2.87,19,3.11,19.22s.49-6.24.91-15.57q.15,3,.31,6c1.47,29.05,3,55.09,3.36,57.95l.57,5.13.16-5.87c.17-7.84,3.37-19.87,3.37-12.76,0,1.4,1.31,25.09,2.86,52.74s2.87,51.86,2.87,53.84c0,9.91,1.23-.73,4.1-36.67.38-4.84.82-10.09,1.29-15.54.75-.28,1.65-.64,2.58-1l3.68-1.61V371.78c1.08-9.65,1.88-15.81,2.12-15.59.55.54,3.5,27.44,6.14,54.72.07,11,.19,18.34.35,18.34a9.12,9.12,0,0,0,1.33-.49c.65,7.08,1.23,13.77,1.69,19.56,3.19,39.76,3.6,44,4.42,44,2.22-.07,2.54-2.27,3.77-24.21,1-16.6,2.17-37.83,3.41-59.84a6,6,0,0,1,2.67-3.46c.82-.44,1.15-2.27,1.23-6.23A73.75,73.75,0,0,1,910.47,386c1.64-7.7,1.64-7.7,4.67.88.82,2.35,1.64,4.25,2,4.25s1.47-8.5,2.78-18.92,2.46-19.29,2.62-19.88c.33-.81.66-.73,1.56.37a3.72,3.72,0,0,1,.63,1.81c.19,8.5.38,18.11.6,29V396.9l.27.16q.06,3.3.13,6.73c.24,15.63.74,28.17,1.06,27.88s2.3-13.5,4.43-29.2l.24-1.8a34,34,0,0,0,4,2.17c.33,0,.5-2.64.5-5.87,0-3.67.41-6.67,1.14-7.92a3.08,3.08,0,0,0,.26-.71c.59,10.65,1.71,31.33,2.52,46.41.9,15.33,1.64,30.15,1.64,32.93s.16,4.92.41,4.77,1.06-8.73,2-19c1.4-15.47,6.07-49.22,7.87-57.5l.49-2.06,1.56,2.06c1.31,1.83,1.56,3.59,1.56,13.42v11.3l4.83,7.77,4.84,7.78,3.11,21c2.79,18.92,3.28,21.12,4.59,21.12s1.48-1.39,1.48-26.84V424.77l3-15.91c1.56-8.73,3.2-16.58,3.52-17.39.58-1.32.74-1.32,1.89.73l1.31,2.13,1.72-3.08c1.31-2.35,1.72-4.4,1.72-9.1,0-5.13,5.08-39.83,5.9-40.63.17-.08,1.56,20.39,3.12,45.55s3,45.7,3,45.55,1-21.34,1.88-47.09,1.56-46.95,1.56-47.09a5.8,5.8,0,0,1,1.72-.15,4,4,0,0,1,2.87,2.2c1.07,1.83,1.23,6.9,1.23,34.62-.08,32.13,0,32.79,3,60.74,3.61,32.71,3.61,32.64,5.08-5.5.58-12.55,1.48-34.62,2.14-49.15s2-43.42,2.86-64.18c.15-3.37.3-6.76.45-10.11.27-.22.49-.25.63,0,.25.52,1.23,7.71,2.05,16,1.89,18.48,2,17.82,4.43-18.34,0-.53.07-1,.1-1.55.59,11.33,1.29,25.73,2.18,44.09.49,9.46,1.06,18.71,1.39,20.54l.49,3.3,1.31-2.71c.74-1.54,1.48-2.79,1.73-2.79a7.54,7.54,0,0,1,1.88,2.27c1.31,2.06,1.39,5.73,1.39,47.32,0,28,.33,45,.82,45a10.54,10.54,0,0,0,2.87-.88c2-.81,2-1,2-8.22,0-4.11,1.8-34.84,4.1-68.29s4.83-73.13,5.74-88,2-27.94,2.13-29l.49-1.83,1.23,2.2c1.06,1.83,1.56,9.46,2.78,45.84.82,24,2,59.79,2.79,79.59s1.23,38.73,1.23,42.11.16,6,.41,5.79,1.72-9.1,3.2-19.73c2.7-18.49,3-22.15,5.32-81.72,1.4-34.33,2.79-65.13,3-68.58.49-5.72.57-6,1.64-4.4.82,1.39,1.06,6.6,1.14,22.74.09,19.14.33,22.44,2.79,39.83,1.47,10.34,2.87,19,3.11,19.22s.82-12.11,1.4-27.37,1.31-29.92,1.64-32.71l.49-5.14,5.49,8.44,5.49,8.36.82,38.88c.49,21.42,1.15,52.52,1.39,69.1s.9,30.29,1.23,30.29a25.42,25.42,0,0,0,4.43-1.61l3.69-1.61v-75l2.46-6.53a55.31,55.31,0,0,1,2.86-6.82c.25-.22,1,.22,1.64,1,1,1.17,1.15,7.62,1.23,42.25,0,22.52.17,40.93.41,40.93s3.36-1.32,7-2.94l6.56-2.93V416.7c0-6.67,1.22-10.56,3.77-11.88.81-.44,1.14-2.27,1.22-6.23a73.75,73.75,0,0,1,1.48-12.62c1.64-7.7,1.64-7.7,4.67.88.82,2.35,1.64,4.25,2,4.25s1.47-8.5,2.78-18.92,2.46-19.29,2.63-19.88c.33-.81.65-.73,1.55.37s1.15,5.35,1.23,22.81V396.9l4.84,3a46.58,46.58,0,0,0,5.33,2.93c.32,0,.49-2.64.49-5.87,0-3.67.41-6.67,1.15-7.92.82-1.47,1.47-9.24,2.45-28.61l1.4-26.7,2.37-4.25c1.32-2.28,3-4.4,3.69-4.62.9-.37,1.23-1.62,1.23-5.07,0-4.76,2.3-16.72,3.2-16.72a8.35,8.35,0,0,1,2.13,2.2c.9,1.17,1.88,2.2,2.29,2.2s.58-2.57.58-5.72c0-5.94,1.39-14.08,2.46-14.08,2.05,0,2.37,5.64,3.27,49.51.5,25.38,1.07,47.68,1.32,49.37l.49,3.22,3.6-5.57,3.61-5.5V368.58c0-14.23,1.89-82.44,2.3-82.08.16.22,1.14,4.11,2.21,8.66,1.39,6.38,1.88,7.55,2,5.13a12.56,12.56,0,0,1,1.4-5.43c1.23-2.12,1.47-2.2,2.38-1,1.14,1.39,1.8,9.39,2.78,36.38.33,9.46.82,16.73,1.07,16.14s1.8-12.47,3.52-26.41,3.2-25.45,3.36-25.6.33-.07.33.22c0,1.1,5.82,24.21,6.15,24.57.24.15.41-.29.41-1.1s.9-11.44,2-23.76,2-23.18,2-24.13c0-1.69.09-1.69,1.56-.52,1.8,1.47,3.36,1,3.36-.95s2.38-3.6,3.28-2.35,1.47,12,2,32.72c.57,19.43,1.15,26.77,2.13,26.77.41,0,.74-1.69.74-3.74,0-4.11,5.57-16.95,6.64-15.19.24.52,1.22,7.71,2,16,1.89,18.48,2,17.82,4.43-18.34,1.39-20.83,2.05-26.92,3-27.36.74-.37,1.15-1.84,1.15-3.82,0-4.25,1.47-7.26,3-6.16.82.66,1.07,7,1.07,33.16v32.27l2-1.69c1.81-1.46,2-2.34,2-6.52,0-5.87,3.36-64.19,3.69-64.55.9-.81,2,1.1,2,3.3,0,1.39.41,2.49.82,2.49s.82-4.25.82-11.37C1280,245.43,1279.75,242.93,1278.93,242.93Z" transform="translate(0 -0.5)"/></svg>