<?xml version="1.0" standalone="no"?>
<!DOCTYPE svg PUBLIC "-//W3C//DTD SVG 20010904//EN"
 "http://www.w3.org/TR/2001/REC-SVG-20010904/DTD/svg10.dtd">
<svg version="1.0" xmlns="http://www.w3.org/2000/svg"
 width="1280.000000pt" height="684.000000pt" viewBox="0 0 1280.000000 684.000000"
 preserveAspectRatio="xMidYMid meet">
<metadata>
Created by potrace 1.15, written by Peter Selinger 2001-2017
</metadata>
<g transform="translate(0.000000,684.000000) scale(0.100000,-0.100000)"
fill="#000000" stroke="none">
<path d="M6604 6795 c-24 -45 -19 100 -44 -1355 -6 -338 -14 -640 -17 -670
l-6 -55 -38 115 -37 114 -18 -37 c-10 -20 -21 -37 -24 -37 -34 0 -69 314 -160
1445 -17 209 -34 403 -38 430 -4 28 -13 -332 -21 -805 -7 -470 -17 -1035 -21
-1255 l-7 -400 -80 -165 -80 -165 -22 42 c-18 37 -21 60 -22 175 0 124 -75
990 -78 903 -1 -37 -30 -125 -41 -125 -3 0 -20 143 -39 318 -19 174 -37 322
-40 329 -3 6 -5 -210 -4 -480 l3 -492 -43 -170 c-38 -150 -46 -170 -65 -173
-16 -3 -26 6 -41 37 -19 37 -21 58 -21 247 l0 207 -45 141 c-29 95 -55 209
-79 346 l-34 205 -1 -552 -1 -551 -76 -194 c-42 -106 -79 -197 -84 -201 -4 -5
-26 69 -49 165 -38 158 -48 233 -117 853 -41 373 -77 681 -79 684 -3 2 -5 -58
-5 -135 0 -281 -38 -802 -78 -1079 -21 -143 -40 -255 -43 -250 -4 6 -21 71
-39 145 -22 90 -47 164 -76 222 l-44 88 0 598 0 598 -56 249 c-30 137 -57 251
-60 254 -2 2 -4 -22 -4 -55 0 -103 -30 -1184 -36 -1304 l-6 -114 -18 34 -18
34 -21 -42 c-19 -37 -21 -58 -21 -199 0 -154 -1 -159 -37 -270 -21 -62 -40
-113 -43 -113 -4 0 -14 16 -23 35 -14 30 -17 71 -17 268 0 128 -5 408 -10 622
-5 215 -12 553 -16 753 -4 199 -8 361 -10 360 -1 -2 -10 -174 -18 -383 -33
-779 -55 -1352 -57 -1427 -1 -43 -5 -78 -8 -78 -4 0 -22 30 -41 67 -33 67 -34
74 -90 533 l-56 465 -7 -175 c-4 -96 -14 -375 -23 -620 l-15 -445 -77 -267
c-42 -148 -80 -268 -83 -268 -3 0 -13 16 -22 35 -15 32 -17 84 -17 486 l0 451
-32 61 -33 61 -6 -35 c-3 -19 -13 -49 -23 -68 l-18 -34 -18 28 c-22 34 -23 41
-60 515 -17 212 -32 390 -35 395 -2 6 -4 -19 -4 -55 -1 -150 -76 -1920 -82
-1920 -14 0 -31 60 -35 125 -2 39 -11 300 -19 580 l-16 510 -71 295 c-38 162
-73 298 -77 302 -4 4 -21 -297 -39 -670 -18 -372 -36 -704 -39 -736 -5 -52 -8
-57 -19 -41 -7 10 -15 23 -17 29 -2 6 -27 -7 -56 -27 -29 -21 -54 -37 -56 -35
-4 4 -11 129 -55 1003 -49 977 -60 1178 -64 1182 -2 2 -11 -14 -20 -37 -14
-36 -16 -146 -16 -1106 l0 -1066 -30 -86 c-17 -48 -33 -94 -36 -102 -4 -11
-11 -5 -24 20 -15 28 -19 57 -19 145 -1 99 -29 474 -37 484 -2 2 -25 -13 -52
-33 -27 -20 -52 -36 -54 -36 -3 0 -27 37 -54 83 -48 81 -49 83 -54 184 l-5
103 -50 -40 c-27 -22 -51 -36 -53 -32 -1 4 -24 281 -51 616 -28 334 -52 611
-55 614 -4 3 -6 -44 -7 -104 0 -119 -21 -420 -30 -428 -3 -3 -18 111 -34 252
l-30 257 -5 -525 -6 -525 -31 -109 c-18 -62 -38 -113 -47 -118 -12 -7 -16 -24
-16 -64 0 -45 -16 -101 -36 -123 -2 -3 -11 4 -19 15 -12 16 -14 73 -15 324
l-1 305 -33 100 -32 100 -7 -245 c-4 -135 -11 -344 -17 -465 -9 -208 -50
-1151 -50 -1167 0 -5 -16 -8 -35 -8 -21 0 -35 5 -35 13 0 29 -121 985 -128
1012 -7 26 -11 18 -36 -73 -16 -57 -30 -101 -32 -99 -2 2 -24 164 -48 361 -25
197 -47 361 -50 364 -3 3 -6 -164 -6 -372 0 -351 -2 -389 -25 -549 -14 -95
-28 -183 -31 -197 -5 -24 -6 -24 -20 -6 -11 16 -14 72 -14 283 l0 264 -33 -6
-34 -7 -29 204 c-28 201 -29 202 -36 138 -4 -36 -16 -247 -28 -470 -11 -223
-23 -445 -27 -495 l-7 -90 -27 160 c-16 97 -28 143 -28 117 -1 -24 -8 -69 -17
-99 -14 -46 -18 -53 -30 -42 -10 11 -13 64 -15 231 l-1 218 -33 43 -33 43 -4
159 c-3 103 -14 210 -29 300 l-24 140 -6 -115 c-3 -63 -17 -374 -30 -690 -13
-326 -27 -562 -31 -545 -4 17 -18 109 -31 205 l-23 175 -28 -49 c-27 -45 -30
-47 -43 -30 -8 11 -13 48 -13 101 0 80 -1 84 -45 155 l-44 73 -26 370 c-14
203 -27 370 -29 372 -1 2 -6 -140 -9 -314 -21 -954 -19 -925 -34 -910 -10 10
-18 106 -33 393 -41 775 -34 692 -63 722 l-27 27 0 -303 c0 -283 -2 -313 -26
-450 -15 -81 -28 -149 -30 -151 -3 -3 -20 11 -39 29 l-35 34 0 99 c0 54 -12
198 -26 320 -24 212 -34 270 -34 196 0 -73 -41 -1118 -46 -1177 -5 -50 -9 -62
-21 -60 -9 2 -19 10 -23 18 -13 26 -38 141 -61 282 -19 122 -25 139 -46 154
-14 8 -26 14 -27 12 -1 -2 -13 -18 -25 -36 -12 -18 -27 -30 -32 -27 -5 4 -9
39 -9 79 0 64 -3 75 -25 96 l-25 23 0 -767 c0 -604 3 -767 12 -764 7 3 18 40
25 84 37 228 33 215 59 225 18 6 31 5 49 -7 24 -16 25 -15 25 7 1 13 11 131
24 262 l23 238 34 37 c19 20 35 39 36 41 2 2 9 -2 18 -9 13 -10 15 -49 15
-249 0 -130 7 -333 15 -451 7 -118 17 -285 21 -370 4 -89 10 -146 15 -135 4
11 17 132 29 270 11 137 22 251 24 252 2 2 14 -21 26 -52 15 -37 27 -54 36
-51 18 7 19 -6 45 -346 13 -159 24 -287 25 -285 2 1 15 165 29 362 28 403 74
875 86 889 19 21 28 -97 33 -464 3 -217 9 -494 13 -615 l7 -220 12 100 c7 55
13 111 13 124 1 16 5 21 16 17 12 -4 15 5 15 55 0 33 7 75 15 95 8 19 27 120
41 224 15 105 30 190 34 190 3 0 14 -25 25 -56 10 -30 21 -57 25 -59 3 -2 12
60 18 138 45 539 45 540 58 522 7 -9 15 -53 18 -98 5 -76 26 -1130 26 -1296 0
-41 2 -72 6 -69 13 14 94 528 120 761 15 141 31 254 34 250 4 -5 15 -37 25
-73 27 -102 34 -104 35 -8 0 86 15 300 26 388 6 44 6 44 19 20 9 -18 16 -169
25 -559 7 -294 15 -597 19 -675 l6 -141 23 140 c13 77 27 156 31 175 l8 35 13
-27 c11 -23 38 -44 45 -36 2 2 8 116 14 253 20 451 22 472 38 442 17 -34 18
-51 49 -797 24 -591 30 -710 33 -589 0 31 8 197 17 368 l15 312 65 62 66 62
18 330 c11 182 33 444 49 583 17 139 31 257 31 262 0 6 16 10 35 10 50 0 65
-29 71 -137 8 -140 54 -1573 54 -1673 0 -49 4 -90 8 -90 4 0 21 89 36 198 16
108 32 203 36 211 4 8 19 -33 36 -100 l29 -114 5 55 c5 51 23 101 33 90 2 -3
17 -191 33 -417 16 -227 32 -413 36 -413 5 0 8 29 8 63 0 58 11 174 26 267 l6
35 14 -25 c7 -14 13 -43 14 -64 1 -114 17 28 61 545 27 314 50 573 52 575 1 2
22 -97 46 -219 53 -279 59 -297 60 -188 1 77 4 88 37 143 42 68 51 69 125 7
26 -22 50 -39 53 -39 3 0 6 25 6 54 0 53 53 673 66 766 l6 45 18 -35 c15 -31
18 -81 24 -440 3 -223 11 -700 16 -1060 l11 -655 31 -75 c41 -99 48 -105 48
-39 0 29 7 326 15 659 14 555 18 634 51 950 19 190 38 356 41 370 l5 25 16
-32 c8 -17 23 -34 33 -36 17 -5 19 2 19 66 0 56 5 80 21 107 l21 34 19 -34
c17 -33 18 -80 19 -935 l1 -900 33 -135 34 -135 1 269 1 269 59 67 59 66 32
755 c49 1168 42 1060 63 1022 15 -28 17 -63 17 -265 0 -128 16 -624 35 -1103
19 -478 36 -892 36 -920 1 -27 12 83 24 245 l24 295 57 135 57 135 38 540 c21
297 38 550 39 563 0 36 37 28 57 -13 20 -43 27 -44 43 -5 7 17 15 30 19 30 3
0 14 -19 24 -43 12 -30 17 -70 17 -142 0 -137 69 -1727 75 -1733 3 -3 5 25 5
63 0 55 62 877 73 975 2 19 17 -4 60 -94 l57 -118 1 -107 c0 -122 72 -1207 80
-1215 3 -3 11 310 19 697 13 697 25 1134 29 1067 1 -19 17 -219 35 -445 l34
-410 1 190 1 190 37 109 c38 108 38 109 45 70 4 -21 21 -316 38 -654 31 -625
36 -700 39 -620 0 25 10 115 21 200 11 85 38 391 60 680 64 836 80 1033 85
1039 3 2 5 -2 5 -9 0 -67 79 -546 111 -675 25 -97 55 -264 78 -424 l37 -263
26 58 c23 54 29 96 63 484 28 308 49 494 80 675 l41 250 21 -40 21 -39 40 79
39 79 21 -40 c20 -39 21 -67 32 -550 21 -914 27 -1131 28 -1003 l2 126 60 157
60 157 0 490 0 489 41 82 c38 76 42 81 55 63 8 -11 19 -35 24 -55 5 -19 23
-384 40 -810 17 -426 35 -818 39 -870 8 -92 8 -93 10 -27 1 57 7 79 41 147 28
57 46 80 59 80 22 0 20 -32 61 825 17 347 34 668 38 715 l7 85 37 -110 37
-110 0 73 c1 52 7 84 21 112 11 22 22 40 24 40 3 0 12 -14 20 -32 14 -28 16
-155 16 -1182 l0 -1151 39 -118 c21 -65 41 -121 45 -124 3 -3 6 51 6 122 0 81
7 171 20 244 10 64 44 355 75 646 30 292 58 546 61 565 6 33 9 28 44 -75 l38
-110 1 112 c1 83 5 121 18 148 9 19 20 35 25 35 4 0 8 -28 8 -62 0 -52 34
-789 68 -1488 l7 -155 23 42 22 42 0 746 0 746 31 122 c51 205 48 197 69 197
20 0 20 -2 60 160 12 47 26 103 32 125 l10 40 19 -35 c17 -33 18 -82 19 -1107
l0 -1073 40 0 40 0 0 283 0 283 44 140 44 139 16 510 c9 281 17 531 18 557 2
55 10 61 28 18 9 -21 19 -30 36 -30 l24 0 0 133 c0 111 13 235 35 335 9 36 42
28 65 -18 18 -36 23 -102 60 -835 22 -438 40 -804 40 -813 1 -10 9 -3 19 18
20 38 22 91 51 1640 6 305 12 564 13 575 2 16 6 14 21 -14 l18 -34 22 39 c16
28 28 38 42 36 10 -2 19 -5 20 -5 0 -1 15 -326 33 -722 18 -396 37 -751 41
-790 l7 -70 2 80 c2 107 41 271 41 174 0 -19 16 -342 35 -719 19 -377 35 -707
35 -734 0 -135 15 10 50 500 35 498 109 1309 118 1300 10 -11 85 -821 116
-1256 39 -542 44 -600 54 -600 27 1 31 31 46 330 35 673 96 1905 116 2310 25
524 26 530 51 530 39 0 55 -61 78 -295 20 -218 27 -450 48 -1668 3 -213 9
-384 13 -380 4 4 28 184 54 398 26 215 50 406 55 425 4 23 11 -57 20 -225 7
-143 21 -431 31 -640 11 -209 20 -411 20 -449 0 -38 2 -67 5 -65 2 3 13 119
25 259 17 211 74 671 96 784 l6 28 19 -28 c16 -25 19 -49 19 -183 l0 -154 59
-106 59 -106 38 -287 c34 -258 40 -288 56 -288 17 0 18 19 18 366 l0 365 36
217 c19 119 39 226 43 237 7 18 9 18 23 -10 l16 -29 21 42 c16 32 21 60 21
124 0 70 62 543 72 554 2 1 19 -278 38 -621 19 -343 36 -623 37 -621 2 2 12
291 23 642 10 351 19 640 19 642 1 1 10 2 21 2 11 0 26 -12 35 -30 13 -25 15
-94 15 -472 -1 -438 0 -447 37 -828 44 -446 44 -445 62 75 7 171 18 472 26
670 8 198 24 592 35 875 11 283 23 578 26 654 l7 140 18 -35 c18 -36 27 -196
69 -1169 6 -129 13 -255 17 -280 l6 -45 16 37 c9 21 18 38 21 38 3 0 13 -14
23 -31 16 -28 17 -78 17 -645 0 -382 4 -614 10 -614 5 0 21 5 35 12 24 11 25
14 25 112 0 56 22 475 50 931 27 457 59 997 70 1200 12 204 24 381 26 395 l6
25 15 -30 c13 -25 19 -129 34 -625 10 -327 25 -815 34 -1085 8 -269 15 -528
15 -574 0 -46 2 -82 5 -79 3 3 21 124 39 269 33 252 36 302 65 1114 17 468 34
888 37 935 6 78 7 82 20 60 10 -19 13 -90 14 -310 1 -261 4 -306 34 -543 18
-141 35 -259 38 -262 2 -3 10 165 17 373 8 207 16 408 20 446 l6 70 67 -115
67 -114 10 -530 c6 -292 14 -716 17 -942 4 -227 11 -413 15 -413 5 0 29 10 54
22 l45 22 0 511 0 511 30 89 c16 48 32 90 35 93 3 3 12 -3 20 -14 12 -16 14
-104 15 -576 0 -307 2 -558 5 -558 3 0 41 18 85 40 l80 40 0 91 c0 91 15 144
46 162 10 6 14 31 15 85 0 42 8 120 18 172 20 105 20 105 57 -12 10 -32 20
-58 24 -58 3 0 18 116 34 258 15 141 30 263 32 271 4 11 8 10 19 -5 12 -16 14
-73 15 -311 l0 -292 59 -41 c33 -22 62 -40 65 -40 4 0 6 36 6 80 0 50 5 91 14
108 10 20 18 126 30 390 l17 364 29 58 c16 31 36 60 45 63 11 5 15 22 15 69 0
65 28 228 39 228 3 0 15 -14 26 -30 11 -16 23 -30 28 -30 4 0 7 35 7 78 0 81
17 192 30 192 25 0 29 -77 40 -675 6 -346 13 -650 16 -673 l6 -44 44 76 44 75
0 138 c0 194 23 1124 28 1119 2 -3 14 -56 27 -118 17 -87 23 -103 24 -70 0 24
8 57 17 74 15 29 18 30 29 14 14 -19 22 -128 34 -496 4 -129 10 -228 13 -220
3 8 22 170 43 360 20 190 39 347 41 349 2 2 4 1 4 -3 0 -15 71 -330 75 -335 3
-2 5 4 5 15 0 10 11 156 25 324 14 167 25 316 25 329 0 23 1 23 19 7 22 -20
41 -14 41 13 0 26 29 49 40 32 10 -17 18 -164 25 -446 7 -265 14 -365 26 -365
5 0 9 23 9 51 0 56 68 231 81 207 3 -7 15 -105 25 -218 23 -252 25 -243 54
250 17 284 25 367 36 373 9 5 14 25 14 52 0 58 18 99 37 84 10 -9 13 -95 13
-452 l0 -440 25 23 c22 20 25 32 25 89 0 80 41 875 45 880 11 11 25 -15 25
-45 0 -19 5 -34 10 -34 6 0 10 58 10 155 0 121 -3 155 -13 155 -7 0 -18 -5
-23 -10 -28 -28 -35 24 -54 426 -25 501 -30 574 -40 574 -12 0 -19 -124 -25
-450 -3 -162 -8 -331 -12 -375 l-6 -80 -22 65 c-12 36 -26 76 -33 90 -6 14
-22 189 -35 390 l-24 365 -2 -266 -1 -266 -37 -47 c-45 -58 -44 -60 -69 122
-10 73 -21 129 -24 125 -4 -5 -17 -142 -30 -306 -13 -163 -27 -294 -31 -290
-3 5 -15 33 -25 63 -18 52 -19 53 -22 23 -2 -17 -10 -37 -18 -44 -25 -21 -34
7 -34 106 0 74 -5 106 -29 175 l-29 85 -1 -53 c-1 -66 -21 -192 -31 -192 -17
0 -29 64 -39 210 -6 85 -11 162 -11 172 0 9 -12 21 -27 26 -16 5 -36 13 -45
17 -16 6 -18 0 -18 -59 0 -37 -6 -82 -14 -101 -14 -31 -18 -34 -45 -29 -31 6
-31 6 -31 -35 0 -23 -5 -51 -11 -62 -10 -20 -11 -20 -24 -2 -12 14 -14 78 -15
319 0 290 -1 312 -40 620 -22 175 -40 332 -40 348 0 16 -2 27 -5 25 -2 -3 -11
-137 -20 -299 -8 -162 -19 -376 -25 -475 -5 -99 -12 -242 -16 -319 -4 -76 -10
-132 -14 -125 -4 8 -15 50 -25 94 -22 105 -35 117 -35 33 0 -43 -5 -69 -14
-77 -11 -9 -19 3 -42 64 -29 76 -37 87 -48 60 -8 -22 -21 -18 -34 10 -8 18
-12 126 -12 351 l0 326 -41 131 c-44 140 -58 170 -51 110 6 -49 -30 -331 -39
-307 -3 11 -17 76 -29 146 -13 71 -25 127 -26 125 -3 -3 -34 -642 -34 -711
l-1 -41 -15 28 c-12 22 -15 68 -16 215 0 178 -2 193 -32 302 -27 100 -31 110
-34 75 -3 -40 -20 -85 -32 -85 -15 0 -40 75 -40 123 0 46 -7 64 -64 159 l-65
107 -30 276 c-17 151 -31 282 -31 292 0 9 -2 14 -4 12 -2 -2 -19 -236 -36
-519 -17 -283 -33 -521 -35 -527 -6 -19 -34 -4 -50 28 -13 23 -15 103 -15 481
l0 453 -31 95 c-17 52 -35 99 -39 104 -5 4 -15 -2 -23 -15 -12 -20 -16 -97
-21 -429 -4 -223 -11 -632 -17 -910 l-10 -505 -67 -173 c-44 -115 -68 -167
-73 -155 -3 10 -19 126 -35 258 l-29 240 -6 -105 c-4 -58 -21 -202 -38 -320
-17 -118 -31 -217 -31 -220 0 -3 -9 9 -19 25 -18 28 -20 80 -35 805 l-17 775
-31 130 c-17 72 -34 136 -38 143 -4 8 -10 -103 -14 -245 -18 -708 -28 -913
-62 -1288 -19 -214 -36 -394 -38 -400 -1 -5 -10 4 -19 21 -16 31 -26 232 -72
1484 -13 346 -78 1192 -93 1210 -2 3 -10 -3 -17 -13 -17 -24 -22 -134 -35
-702 -17 -766 -20 -835 -40 -835 -14 0 -18 -12 -23 -62 -3 -35 -27 -301 -52
-593 -25 -291 -49 -541 -52 -555 -5 -25 -5 -24 -23 10 -15 31 -18 94 -29 605
-6 314 -14 710 -18 882 l-6 312 -38 78 -37 78 -1 -40 c-2 -109 -75 -1011 -82
-1019 -25 -27 -34 31 -65 422 -37 465 -41 498 -42 387 -2 -83 -31 -471 -38
-493 -2 -8 -26 1 -71 29 -37 23 -71 43 -75 45 -4 3 -15 -9 -24 -26 -10 -16
-21 -30 -24 -30 -3 0 -12 19 -22 43 -14 36 -18 119 -27 552 -14 630 -24 975
-28 955 -2 -8 -28 -201 -58 -429 -30 -228 -56 -416 -58 -418 -3 -2 -10 10 -17
27 -15 35 -30 39 -31 8 -1 -44 -67 -323 -72 -308 -22 54 -81 326 -107 490 -50
314 -43 356 -72 -432 -6 -186 -13 -336 -15 -334 -2 2 -20 113 -39 247 -38 271
-38 269 -57 269 -10 0 -16 -73 -25 -367 -35 -1051 -31 -989 -73 -1318 -21
-170 -39 -315 -39 -322 0 -29 -40 -12 -59 25 -20 39 -22 76 -52 962 -10 303
-14 352 -65 730 -29 223 -57 422 -60 444 l-6 38 -19 -28 c-10 -16 -19 -27 -20
-24 -1 3 -18 118 -38 255 l-38 250 -6 -85 c-4 -47 -11 -287 -17 -535 -21 -928
-21 -925 -41 -925 -12 0 -27 16 -40 42 -21 41 -22 66 -40 698 -17 604 -21 682
-55 1005 -20 193 -39 357 -42 365 -6 15 -10 -110 -32 -1112 l-13 -588 -42 0
-41 0 -13 -357 c-6 -197 -15 -449 -18 -560 -3 -112 -9 -203 -13 -203 -4 0 -32
18 -62 40 l-55 39 -7 128 c-3 70 -20 423 -36 783 -37 816 -36 800 -61 800 -18
0 -19 -15 -19 -573 l0 -573 -35 -105 c-19 -57 -37 -110 -40 -118 -4 -9 -26 13
-63 63 l-57 77 -6 -38 c-3 -21 -14 -55 -25 -76 l-20 -38 -21 48 c-20 46 -22
73 -33 633 -21 1047 -24 1113 -66 1538 -21 215 -41 392 -45 392 -3 0 -13 -17
-22 -37 -14 -33 -17 -136 -27 -743 -18 -1155 -30 -1803 -34 -1808 -3 -2 -12
10 -20 27 -11 20 -16 57 -16 116 l0 86 -61 80 -60 80 -10 227 c-5 125 -22 601
-39 1057 -16 457 -31 855 -32 885 l-3 55 -21 -40z"/>
</g>
</svg>
