<svg id="Layer_1" data-name="Layer 1" xmlns="http://www.w3.org/2000/svg" viewBox="0 0 432 72"><defs><style>.cls-1{fill:#fff;}</style></defs><polygon class="cls-1" points="30.62 7.88 41.38 7.88 54.88 61.88 61.88 61.88 61.88 0 54 0 54 25.89 47.53 0 24.47 0 18 25.89 18 0 10.13 0 10.13 61.88 17.12 61.88 30.62 7.88"/><polygon class="cls-1" points="64.13 64.13 53.12 64.13 39.62 10.13 32.38 10.13 18.88 64.13 7.88 64.13 7.88 0 0 0 0 72 25.03 72 36 28.11 46.97 72 72 72 72 0 64.13 0 64.13 64.13"/><path class="cls-1" d="M130.5,0H81V72h7.88V7.88H130.5a14.62,14.62,0,1,1,0,29.24H91.12V72H99V45h31.5a22.5,22.5,0,0,0,0-45Z"/><path class="cls-1" d="M142.88,22.5A12.4,12.4,0,0,0,130.5,10.12H91.12V34.88H130.5A12.4,12.4,0,0,0,142.88,22.5ZM99,18h31.5a4.5,4.5,0,0,1,0,9H99Z"/><path class="cls-1" d="M212.81,10.12H172.12V61.88h40.69a11.09,11.09,0,0,0,11.07-11.07V21.19A11.09,11.09,0,0,0,212.81,10.12ZM216,50.81A3.19,3.19,0,0,1,212.81,54H180V18h32.81A3.19,3.19,0,0,1,216,21.19Z"/><path class="cls-1" d="M212.81,0H162V72h50.81A21.22,21.22,0,0,0,234,50.81V21.19A21.22,21.22,0,0,0,212.81,0Zm13.31,50.81a13.32,13.32,0,0,1-13.31,13.31H169.88V7.88h42.93a13.32,13.32,0,0,1,13.31,13.31Z"/><path class="cls-1" d="M293.81,0H264.19A21.22,21.22,0,0,0,243,21.19V50.81A21.22,21.22,0,0,0,264.19,72h29.62A21.22,21.22,0,0,0,315,50.81V21.19A21.22,21.22,0,0,0,293.81,0ZM297,50.81A3.19,3.19,0,0,1,293.81,54H264.19A3.19,3.19,0,0,1,261,50.81V21.19A3.19,3.19,0,0,1,264.19,18h29.62A3.19,3.19,0,0,1,297,21.19Z"/><path class="cls-1" d="M374.81,0H345.19A21.22,21.22,0,0,0,324,21.19V50.81A21.22,21.22,0,0,0,345.19,72h29.62A21.22,21.22,0,0,0,396,50.81V21.19A21.22,21.22,0,0,0,374.81,0ZM378,50.81A3.19,3.19,0,0,1,374.81,54H345.19A3.19,3.19,0,0,1,342,50.81V21.19A3.19,3.19,0,0,1,345.19,18h29.62A3.19,3.19,0,0,1,378,21.19Z"/><path class="cls-1" d="M410.81,0H405V18h5.81A3.19,3.19,0,0,1,414,21.19V72h18V21.19A21.22,21.22,0,0,0,410.81,0Z"/></svg>